# xmcd
#
# Track frame offsets:
#	150
#	15414
#	30049
#	43109
#	57672
#	68013
#	75752
#	95620
#	106648
#	118766
#	132165
#	141820
#	156812
#	169510
#	185981
#	190999
#	199960
#	210820
#
# Disc length: 2871 seconds
#
# Revision: 0
# Processed by: cddbd v1.5.2PL0 Copyright (c) Steve Scherf et al.
# Submitted via: audiograbber 1.83.01
#
DISCID=e70b3512
DTITLE=Merle Haggard - Merle Haggard Live
DYEAR=2009
DGENRE=Country
TTITLE0=San Antonio Rose
TTITLE1=Folsom Prison Blues
TTITLE2=Workin' Man Blues
TTITLE3=The Fightin' Side Of Me
TTITLE4=Ida Red
TTITLE5=Branded Man
TTITLE6=The Bottle Let Me Down
TTITLE7=Begging To You
TTITLE8=Okie From Muskogee
TTITLE9=Mama Tried
TTITLE10=Take Me Back To Tulsa
TTITLE11=Always Late
TTITLE12=Big City
TTITLE13=Ramblin' Fever
TTITLE14=Love's Gonna Live Here Again
TTITLE15=Hobo Bill
TTITLE16=Silver Wings
TTITLE17=Swingin' Door
EXTD=Flashback Australia  Cat No 18922
EXTT0=
EXTT1=
EXTT2=
EXTT3=
EXTT4=
EXTT5=
EXTT6=
EXTT7=
EXTT8=
EXTT9=
EXTT10=
EXTT11=
EXTT12=
EXTT13=
EXTT14=
EXTT15=
EXTT16=
EXTT17=
PLAYORDER=
